<?xml version="1.0" standalone="no"?>
<!DOCTYPE svg PUBLIC "-//W3C//DTD SVG 20010904//EN"
 "http://www.w3.org/TR/2001/REC-SVG-20010904/DTD/svg10.dtd">
<svg version="1.0" xmlns="http://www.w3.org/2000/svg"
 width="244.000000pt" height="244.000000pt" viewBox="0 0 244.000000 244.000000"
 preserveAspectRatio="xMidYMid meet">
<metadata>
Created by potrace 1.14, written by Peter Selinger 2001-2017
</metadata>
<g transform="translate(0.000000,244.000000) scale(0.100000,-0.100000)"
fill="#000000" stroke="none">
<path d="M0 2404 c0 -30 3 -35 17 -30 12 5 27 -5 50 -30 32 -36 44 -62 23 -49
-5 3 -10 3 -10 -2 1 -9 90 -52 111 -54 8 -1 3 -5 -11 -9 -23 -7 -23 -8 10 -10
19 -1 38 -2 43 -1 4 0 7 -4 7 -9 0 -5 13 -10 29 -10 33 0 91 -18 106 -33 7 -7
6 -8 -2 -3 -7 4 -13 5 -13 2 0 -3 10 -10 21 -17 17 -9 20 -8 13 3 -4 7 2 5 13
-4 21 -19 89 -25 78 -8 -6 10 41 16 97 12 15 -1 30 3 33 8 3 6 11 10 16 10 6
0 8 -4 5 -9 -4 -5 5 -4 18 2 17 8 23 19 22 38 -1 18 2 25 11 22 7 -3 11 -10
10 -16 -1 -8 16 -12 53 -11 30 0 58 -3 61 -8 9 -14 84 18 83 35 -1 8 4 13 10
11 7 -3 19 11 28 30 11 22 25 36 40 38 13 2 22 9 21 16 -2 6 2 12 8 12 5 0 7
5 4 10 -15 25 26 70 56 62 4 -1 9 8 12 18 5 20 -3 20 -534 20 l-539 0 0 -36z
m634 -169 c-4 -8 -10 -15 -14 -15 -4 0 -13 7 -20 15 -11 13 -8 15 13 15 19 0
25 -4 21 -15z"/>
<path d="M1313 2424 c32 -17 31 -15 12 -61 -16 -37 -12 -51 24 -79 10 -8 11
-13 3 -18 -17 -10 -15 -82 3 -100 8 -8 15 -21 15 -29 0 -9 9 -12 28 -9 19 2
33 -3 46 -17 l19 -20 28 20 c23 16 33 18 49 9 11 -6 20 -13 20 -16 0 -3 -5 -2
-12 2 -6 4 -8 3 -5 -3 4 -6 18 -10 32 -10 13 0 22 3 19 8 -3 5 2 9 10 9 9 0
16 -6 16 -12 0 -10 2 -10 8 -1 8 12 36 12 48 0 4 -4 14 -7 23 -7 13 0 13 2 2
9 -18 12 -4 18 52 20 27 1 58 6 70 10 12 4 27 6 34 4 6 -2 14 1 18 6 3 6 11
11 16 11 6 0 8 -4 4 -9 -3 -6 3 -10 12 -10 59 -1 68 -6 66 -35 l-2 -29 27 27
c27 25 49 35 37 17 -3 -5 0 -13 6 -17 15 -9 49 31 49 56 0 20 -25 71 -34 71
-22 -2 -26 2 -26 24 0 16 6 25 15 25 8 0 15 4 15 10 0 15 42 50 60 50 9 0 27
11 40 25 21 23 24 23 51 9 16 -8 32 -14 36 -13 24 4 34 -3 31 -22 -2 -15 5
-24 28 -34 30 -12 32 -11 65 28 19 22 42 48 52 56 9 9 17 26 17 38 l0 23 -577
0 c-518 -1 -575 -2 -550 -16z m692 -303 c3 -5 2 -12 -3 -15 -5 -3 -9 1 -9 9 0
17 3 19 12 6z"/>
<path d="M52 2104 c-27 -19 -35 -68 -33 -206 1 -75 -2 -118 -9 -118 -6 0 -10
-52 -10 -140 0 -130 1 -140 19 -140 10 0 24 -7 31 -15 11 -13 10 -14 -5 -9
-15 6 -17 3 -12 -17 3 -13 2 -31 -3 -39 -8 -12 -10 -12 -11 5 -1 16 -2 15 -8
-5 -4 -14 -9 -170 -10 -348 l-2 -323 73 6 c362 33 451 44 467 59 22 20 100 48
113 40 5 -3 14 -16 19 -28 l10 -21 -5 22 c-3 18 5 28 40 50 45 29 80 79 72
104 -3 8 2 19 11 26 13 10 9 12 -26 13 -31 0 -43 4 -43 15 0 10 -11 15 -35 15
-19 0 -35 -4 -35 -10 0 -5 -5 -10 -11 -10 -5 0 -7 5 -4 10 9 14 -51 17 -110 6
-28 -6 -28 -6 -10 8 11 9 32 16 48 16 15 0 27 5 27 10 0 6 9 10 20 10 13 0 18
-5 14 -15 -4 -8 -1 -15 5 -15 6 0 11 8 11 17 0 15 2 14 15 -3 9 -12 18 -15 22
-9 5 6 17 11 28 12 11 1 30 4 43 8 13 5 22 3 22 -3 0 -6 -10 -12 -22 -14 -19
-3 -18 -5 8 -9 26 -4 30 -2 26 13 -3 14 2 18 23 18 38 0 27 24 -13 28 -22 2
-30 7 -25 15 4 8 1 7 -9 -1 -11 -9 -29 -11 -54 -6 -30 5 -34 8 -20 16 10 6 26
8 37 5 10 -3 19 -2 19 3 0 14 -30 20 -55 10 -14 -5 -38 -7 -54 -4 -17 4 -32 1
-36 -6 -5 -8 1 -11 18 -8 15 1 26 -1 26 -7 0 -5 -18 -10 -39 -9 -22 0 -40 -3
-40 -8 0 -4 -7 -8 -16 -8 -8 0 -12 -4 -9 -10 4 -6 -6 -10 -22 -10 -22 0 -25 2
-13 10 12 8 10 10 -8 10 -13 0 -21 -4 -17 -9 3 -5 0 -13 -6 -17 -8 -4 -9 -3
-5 5 8 13 -78 14 -104 1 -9 -5 -26 -3 -39 5 -13 7 -32 10 -43 7 -12 -3 -18 1
-18 12 0 10 6 13 15 10 8 -4 15 -1 15 5 0 6 8 8 18 4 12 -4 9 1 -7 16 -16 14
-32 19 -45 15 -17 -4 -18 -3 -6 6 9 6 37 8 72 4 36 -4 64 -1 79 6 19 11 21 10
16 -4 -7 -19 14 -21 44 -5 15 7 24 7 34 -1 8 -7 19 -9 25 -5 5 3 10 1 10 -4 0
-6 4 -11 10 -11 20 0 -3 30 -24 31 -20 0 -20 1 -1 8 11 5 29 5 40 1 14 -5 28
-2 44 11 22 18 22 19 3 19 -26 0 -39 19 -21 31 11 7 9 9 -7 9 -28 0 -36 -10
-23 -27 9 -10 6 -13 -17 -14 -16 -1 -33 -1 -37 0 -27 4 -44 9 -59 15 -9 4 -22
5 -28 1 -5 -3 -10 -1 -10 6 0 8 -4 8 -12 1 -11 -8 -65 -10 -137 -3 -8 1 -11 8
-8 20 3 13 -1 21 -14 24 -12 3 -22 18 -25 36 -7 32 -33 46 -79 43 -19 -1 -19
0 -2 10 11 5 32 7 48 4 34 -6 38 4 9 22 -12 7 -18 17 -15 22 3 5 -4 15 -16 24
-12 8 -18 19 -14 25 3 6 0 11 -7 11 -8 0 -6 4 4 11 20 11 106 12 473 5 143 -3
249 -2 235 3 -14 4 -85 9 -159 10 -101 1 -137 5 -148 16 -14 14 -36 16 -188
19 l-40 1 -5 47 c-6 52 -10 58 -36 62 -17 3 -39 61 -28 77 9 15 -26 30 -56 24
-29 -6 -30 -8 -30 -63 0 -51 -1 -54 -14 -37 -9 14 -15 76 -19 217 -3 108 -10
206 -16 216 -15 27 -35 33 -59 16z m18 -40 c0 -14 -4 -23 -10 -19 -5 3 -10 15
-10 26 0 10 5 19 10 19 6 0 10 -12 10 -26z m100 -478 c0 -2 -7 -9 -15 -16 -13
-11 -14 -10 -9 4 5 14 24 23 24 12z m243 -373 c-7 -2 -19 -2 -25 0 -7 3 -2 5
12 5 14 0 19 -2 13 -5z m-60 -10 c-7 -2 -19 -2 -25 0 -7 3 -2 5 12 5 14 0 19
-2 13 -5z m-118 -83 c3 -5 1 -10 -4 -10 -6 0 -11 5 -11 10 0 6 2 10 4 10 3 0
8 -4 11 -10z"/>
<path d="M1950 2110 c0 -5 5 -10 10 -10 6 0 10 5 10 10 0 6 -4 10 -10 10 -5 0
-10 -4 -10 -10z"/>
<path d="M1295 1863 c-11 -3 -44 -21 -74 -41 -75 -50 -93 -92 -82 -193 8 -77
0 -108 -29 -110 -11 0 -11 -2 -2 -6 7 -3 20 1 28 8 14 11 18 10 30 -6 8 -10
14 -25 14 -32 0 -9 12 -11 45 -6 25 3 45 3 45 1 0 -3 -18 -18 -40 -33 -29 -20
-40 -34 -38 -49 3 -18 15 -23 86 -36 45 -8 82 -18 82 -23 0 -5 -7 -7 -15 -4
-15 6 -31 -10 -21 -21 11 -10 90 -11 108 -1 10 5 18 20 18 33 0 24 26 54 36
43 13 -12 -7 -75 -31 -97 -26 -24 -112 -44 -151 -34 -29 7 -51 33 -56 63 -3
27 -16 35 -37 22 -20 -13 -5 -48 30 -68 35 -21 41 -67 9 -76 -22 -6 -113 -136
-150 -217 -4 -8 -30 -21 -58 -30 -29 -8 -60 -23 -69 -34 -17 -18 -16 -18 40
-11 38 4 57 3 57 -4 0 -6 -4 -11 -9 -11 -16 0 -111 -82 -111 -95 0 -18 23 -32
28 -17 4 14 32 16 32 2 0 -5 -8 -13 -17 -19 -15 -8 -16 -12 -5 -22 28 -30 -8
-41 -44 -15 -10 8 -29 12 -40 10 -12 -3 -25 -1 -28 5 -11 18 -63 13 -98 -9
-43 -26 -57 -25 -68 5 -14 36 -20 31 -13 -10 8 -50 -3 -43 -22 15 -19 57 -29
67 -51 49 -11 -9 -14 -23 -10 -43 5 -28 2 -33 -32 -49 -88 -43 -95 -71 -10
-44 50 16 68 15 68 -3 0 -5 -24 -22 -54 -39 -57 -33 -111 -38 -121 -13 -6 17
-25 15 -260 -23 -218 -36 -205 -32 -205 -66 0 -37 -5 -37 290 6 129 19 239 30
243 26 4 -4 -41 -16 -100 -25 -59 -10 -180 -30 -268 -45 l-160 -27 -3 -73 c-3
-66 -1 -72 15 -68 10 3 126 25 257 48 131 24 234 45 228 47 -6 2 -117 -15
-247 -38 -131 -22 -240 -39 -242 -36 -16 16 90 42 334 82 153 25 341 56 418
69 89 15 144 20 151 14 14 -12 15 -59 2 -59 -6 0 -6 -6 1 -14 17 -21 18 -145
1 -156 -8 -5 -41 -14 -74 -20 -34 -6 -97 -17 -141 -25 -44 -8 -91 -17 -105
-20 -14 -3 -74 -14 -135 -24 -60 -11 -117 -22 -125 -25 -8 -3 -33 -8 -55 -10
-22 -3 -94 -17 -160 -31 -66 -13 -121 -25 -122 -25 -2 0 -3 -18 -3 -40 l0 -40
393 0 c308 0 405 3 452 15 77 18 95 18 95 0 0 -12 13 -15 55 -15 l56 0 -6 33
c-4 21 -1 39 9 52 13 18 16 19 28 4 15 -19 56 -31 63 -19 3 5 -10 21 -30 37
-23 19 -35 36 -35 53 0 35 12 51 30 40 21 -14 36 -12 22 2 -7 7 -12 24 -12 38
0 21 5 26 29 28 33 2 51 -15 27 -24 -13 -5 -11 -12 11 -40 19 -25 29 -32 38
-24 9 8 14 6 19 -5 3 -9 10 -13 16 -10 5 3 18 1 27 -5 16 -9 15 -10 -4 -5 -13
4 -23 2 -23 -3 0 -12 38 -23 45 -12 3 4 14 6 25 3 11 -3 18 -8 16 -12 -2 -3 6
-7 19 -7 23 -2 35 25 35 80 0 30 41 46 101 39 27 -3 47 -8 44 -11 -3 -3 -1
-10 4 -16 8 -10 -5 -117 -24 -194 l-5 -22 205 0 c173 0 205 2 205 15 0 8 -9
19 -20 25 -24 13 -26 47 -5 142 l14 68 -53 167 c-29 93 -57 176 -61 186 -9 21
8 23 25 2 15 -18 40 -20 40 -3 0 7 3 8 9 3 11 -12 38 -149 46 -238 7 -85 15
-127 25 -127 11 0 33 47 39 87 6 34 10 38 54 49 l47 12 -25 -30 c-40 -47 -28
-63 25 -35 14 8 35 11 45 7 18 -6 18 -7 1 -17 -15 -8 -15 -11 -2 -22 11 -9 24
-10 53 -2 21 6 50 11 66 11 22 0 29 5 33 28 5 26 13 30 70 44 59 14 65 14 74
-1 6 -11 9 23 10 102 0 111 -1 117 -20 117 -11 0 -23 -6 -26 -14 -8 -20 -60 3
-135 60 -30 23 -77 53 -105 66 -27 13 -50 31 -52 41 -6 30 43 121 94 173 57
59 128 95 195 102 47 4 48 5 47 37 -1 32 -2 33 -62 40 -34 3 -74 9 -90 12 -21
4 -27 3 -22 -6 4 -6 12 -9 17 -6 5 4 9 -1 9 -11 0 -13 6 -15 29 -11 38 8 98
-9 98 -28 0 -18 -2 -18 -30 -3 -25 13 -107 18 -107 6 0 -5 -13 -8 -29 -8 -16
0 -52 -7 -80 -17 -49 -16 -75 -13 -55 7 5 5 32 14 59 21 28 6 56 13 63 15 18
5 15 44 -4 51 -11 4 -22 -1 -30 -12 -8 -10 -14 -14 -14 -8 0 6 -12 14 -27 18
-40 10 -134 65 -128 75 7 11 -29 13 -168 11 -15 0 -39 -9 -52 -18 -22 -16 -24
-25 -25 -88 0 -38 7 -101 16 -140 35 -158 31 -187 -29 -201 -28 -6 -35 -2 -63
31 -89 102 -123 327 -55 361 15 8 18 13 9 16 -10 4 -11 11 -2 36 11 28 10 31
-12 36 -12 3 -37 19 -54 34 -30 28 -30 29 -15 65 8 20 15 46 15 57 0 11 4 20
10 20 5 0 12 16 16 36 4 23 14 38 28 44 19 7 19 9 4 15 -10 4 -15 11 -12 16 3
6 -1 20 -8 32 -8 12 -16 47 -17 77 -5 121 -42 176 -138 202 -78 22 -152 38
-161 37 -4 -1 -16 -4 -27 -6z m197 -104 c34 -18 50 -41 43 -67 -4 -18 -1 -28
15 -39 25 -18 27 -45 3 -36 -10 4 -27 15 -38 26 -27 25 -114 19 -154 -10 -19
-14 -32 -18 -42 -12 -28 18 -97 10 -119 -13 -11 -12 -20 -25 -20 -30 0 -14 30
-9 36 7 7 16 39 20 48 6 3 -5 -8 -14 -24 -21 -47 -19 -37 -33 20 -28 28 3 50
1 50 -3 0 -30 -124 -39 -126 -9 -2 34 -5 40 -17 40 -11 0 -12 12 -6 56 13 100
63 143 162 143 32 0 62 2 65 6 8 7 80 -4 104 -16z m-29 -150 c7 0 3 -4 -8 -8
-22 -9 -35 -5 -35 11 0 5 7 7 16 4 9 -3 21 -6 27 -7z m93 -63 c-4 -17 -11 -23
-21 -20 -18 7 -20 35 -3 52 17 17 32 -2 24 -32z m-48 7 c-5 -26 -118 -32 -118
-8 0 13 6 15 30 10 16 -3 37 -2 47 4 27 16 45 13 41 -6z m-121 -38 c20 -20 34
-37 32 -38 -13 -10 -125 -25 -131 -19 -9 9 41 92 55 92 5 0 25 -16 44 -35z
m128 -24 c3 -5 0 -13 -5 -16 -15 -9 -60 3 -60 15 0 13 57 13 65 1z m-211 -77
c9 -22 8 -24 -9 -24 -8 0 -15 9 -15 20 0 24 15 27 24 4z m47 -380 c16 -20 -2
-38 -30 -29 -25 8 -55 50 -47 64 7 11 57 -12 77 -35z m-55 -322 l2 -52 -34 2
c-33 2 -45 20 -24 33 6 3 10 18 10 33 l-1 27 -12 -23 c-16 -28 -26 -21 -19 14
4 22 9 25 41 22 l36 -3 1 -53z m64 39 c0 -3 -7 -15 -15 -25 -14 -19 -15 -18
-24 5 -5 13 -7 27 -5 31 5 8 44 -2 44 -11z m40 0 c0 -8 84 -45 105 -46 6 0 10
-23 10 -50 0 -39 4 -50 17 -53 14 -3 16 3 11 31 -6 38 9 56 31 38 15 -13 20
-131 6 -131 -8 0 -53 23 -93 47 -4 3 -3 11 3 18 6 8 10 29 8 47 -2 27 -10 36
-42 51 -73 35 -92 27 -81 -31 5 -26 5 -26 -6 -5 -15 28 -3 93 16 93 8 0 15 -4
15 -9z m-290 -11 c0 -9 -31 -30 -44 -30 -4 0 -1 9 6 20 13 21 38 27 38 10z
m30 -5 c0 -8 -4 -15 -10 -15 -5 0 -10 7 -10 15 0 8 5 15 10 15 6 0 10 -7 10
-15z m715 -16 c4 -11 5 -22 3 -23 -1 -1 -16 -8 -33 -15 -25 -11 -31 -10 -42 5
-18 25 -16 33 10 44 36 14 55 11 62 -11z m-805 -69 c5 0 15 6 22 13 7 8 21 14
31 14 9 0 17 -6 17 -14 0 -7 -11 -13 -24 -13 -14 0 -28 -5 -31 -10 -11 -18
-35 10 -34 39 l2 26 4 -27 c2 -16 8 -28 13 -28z m287 18 c-3 -8 -6 -5 -6 6 -1
11 2 17 5 13 3 -3 4 -12 1 -19z m-313 -68 c4 -44 12 -80 17 -80 6 0 7 -9 4
-21 -12 -37 -13 -74 -3 -80 14 -9 -21 -139 -39 -146 -7 -3 -13 -15 -14 -27 0
-19 -1 -19 -10 4 -23 54 6 430 32 430 3 0 10 -36 13 -80z m604 52 c2 -7 -3
-12 -12 -12 -9 0 -16 7 -16 16 0 17 22 14 28 -4z m-659 -77 c0 -30 -3 -55 -8
-55 -6 0 -7 16 -4 35 5 34 5 35 -28 35 -19 0 -74 -7 -124 -15 -49 -8 -99 -15
-110 -14 l-20 0 20 9 c11 5 73 16 138 26 64 9 117 21 117 25 0 5 4 9 9 9 4 0
9 -25 10 -55z m159 13 c19 -19 14 -25 -18 -24 -16 1 -30 6 -30 12 0 25 28 32
48 12z m945 -45 c6 -16 15 -31 20 -34 8 -6 -79 -39 -102 -39 -20 0 -11 47 14
74 31 33 52 33 68 -1z m-958 7 c3 -5 1 -10 -4 -10 -6 0 -11 5 -11 10 0 6 2 10
4 10 3 0 8 -4 11 -10z m1195 -10 c0 -5 -5 -10 -11 -10 -5 0 -7 5 -4 10 3 6 8
10 11 10 2 0 4 -4 4 -10z m-990 -10 c0 -5 -7 -10 -15 -10 -8 0 -15 5 -15 10 0
6 7 10 15 10 8 0 15 -4 15 -10z m95 -10 c3 -5 2 -10 -4 -10 -5 0 -13 5 -16 10
-3 6 -2 10 4 10 5 0 13 -4 16 -10z m99 -22 c14 -20 23 -98 12 -98 -3 0 -16 4
-29 9 -27 10 -53 70 -43 96 8 22 43 18 60 -7z m-554 2 c0 -5 -4 -10 -10 -10
-5 0 -10 5 -10 10 0 6 5 10 10 10 6 0 10 -4 10 -10z m1167 -27 c4 -10 -23 -16
-107 -28 l-35 -4 35 11 c19 7 37 15 40 19 6 8 41 17 54 15 6 -1 11 -7 13 -13z
m13 -97 c0 -3 -4 -8 -10 -11 -5 -3 -10 -1 -10 4 0 6 5 11 10 11 6 0 10 -2 10
-4z m-865 -157 c15 -15 16 -19 5 -20 -8 0 -27 -2 -42 -4 -28 -4 -39 10 -15 18
9 3 8 8 -3 22 -14 17 -13 17 10 10 14 -4 34 -16 45 -26z"/>
<path d="M1676 1783 c-3 -16 -5 -72 -5 -126 0 -53 -3 -106 -6 -117 -6 -18 -4
-19 17 -10 22 11 23 16 26 146 3 113 1 134 -12 134 -8 0 -17 -12 -20 -27z"/>
<path d="M2365 1670 l-30 -8 28 -1 c15 0 30 -1 35 -1 4 1 10 -16 13 -37 6 -38
6 -38 8 10 1 50 0 51 -54 37z"/>
<path d="M2304 1657 c-2 -7 -1 -37 3 -67 7 -50 11 -55 35 -58 18 -2 31 4 42
19 9 13 12 25 7 29 -5 3 -11 14 -14 25 -4 18 -5 18 -6 -2 -1 -14 -7 -23 -17
-23 -12 0 -15 8 -12 33 5 42 -25 77 -38 44z"/>
<path d="M1868 1654 c-3 -3 -19 -6 -34 -8 -19 -2 -30 -10 -33 -22 -2 -10 -8
-22 -13 -25 -6 -4 -5 -17 5 -34 16 -32 26 -34 195 -42 86 -4 102 -2 102 11 0
8 -8 15 -17 15 -10 0 -33 1 -50 1 -31 1 -33 4 -33 36 0 19 -4 34 -10 34 -5 0
-10 -9 -10 -20 0 -11 -6 -20 -14 -20 -31 0 -46 13 -46 40 0 16 -7 30 -16 34
-19 7 -19 7 -26 0z"/>
<path d="M2142 1629 c-15 -6 -22 -15 -20 -26 3 -15 16 -19 71 -21 51 -2 67 -6
67 -17 0 -8 5 -15 11 -15 6 0 8 6 5 13 -3 6 -9 20 -12 30 -4 11 -17 17 -37 17
-17 0 -38 6 -46 14 -11 10 -23 11 -39 5z"/>
<path d="M1762 1605 c0 -16 2 -22 5 -12 2 9 2 23 0 30 -3 6 -5 -1 -5 -18z"/>
<path d="M1930 1609 c0 -5 4 -8 9 -5 5 4 12 0 14 -6 3 -8 6 -6 6 5 1 9 -6 17
-14 17 -8 0 -15 -5 -15 -11z"/>
<path d="M1025 1534 c-19 -16 -19 -16 10 -10 17 4 38 8 48 9 28 2 19 17 -10
17 -16 0 -37 -8 -48 -16z"/>
<path d="M958 1523 c6 -2 18 -2 25 0 6 3 1 5 -13 5 -14 0 -19 -2 -12 -5z"/>
<path d="M908 1503 c6 -2 18 -2 25 0 6 3 1 5 -13 5 -14 0 -19 -2 -12 -5z"/>
<path d="M2120 1498 c0 -14 19 -17 141 -22 84 -4 113 -3 89 4 -19 5 -46 6 -60
4 -20 -5 -22 -3 -10 5 11 9 1 11 -42 8 -32 -2 -58 0 -58 4 0 5 -13 7 -30 6
-16 -1 -30 -5 -30 -9z"/>
<path d="M2030 1490 l-45 -7 48 -1 c26 -1 47 3 47 8 0 6 -1 9 -2 8 -2 0 -23
-4 -48 -8z"/>
<path d="M1943 1483 c9 -2 23 -2 30 0 6 3 -1 5 -18 5 -16 0 -22 -2 -12 -5z"/>
<path d="M785 1300 c-3 -5 -1 -10 4 -10 6 0 11 5 11 10 0 6 -2 10 -4 10 -3 0
-8 -4 -11 -10z"/>
<path d="M768 1243 c7 -3 16 -2 19 1 4 3 -2 6 -13 5 -11 0 -14 -3 -6 -6z"/>
<path d="M948 1233 c7 -3 16 -2 19 1 4 3 -2 6 -13 5 -11 0 -14 -3 -6 -6z"/>
<path d="M710 1212 c0 -7 -17 -13 -37 -14 l-38 -1 34 -4 c33 -4 61 10 48 24
-4 3 -7 1 -7 -5z"/>
<path d="M889 1164 c-5 -15 -7 -29 -5 -32 3 -2 -1 -20 -9 -39 -22 -52 -19 -59
28 -77 66 -25 92 -21 107 15 7 17 35 53 61 80 l48 50 -52 -7 c-35 -4 -64 -16
-89 -35 -46 -36 -60 -37 -52 -4 7 30 -2 75 -16 75 -6 0 -15 -12 -21 -26z"/>
<path d="M480 1163 c0 -13 -69 -31 -73 -19 -2 5 -6 2 -10 -7 -5 -14 -1 -17 21
-16 15 0 41 6 58 12 27 10 30 14 18 25 -8 7 -14 9 -14 5z"/>
<path d="M2368 1153 c7 -3 16 -2 19 1 4 3 -2 6 -13 5 -11 0 -14 -3 -6 -6z"/>
<path d="M2425 1150 c3 -5 8 -10 11 -10 2 0 4 5 4 10 0 6 -5 10 -11 10 -5 0
-7 -4 -4 -10z"/>
<path d="M346 1125 c-3 -8 -1 -15 4 -15 6 0 10 7 10 15 0 8 -2 15 -4 15 -2 0
-6 -7 -10 -15z"/>
<path d="M748 1043 c7 -3 16 -2 19 1 4 3 -2 6 -13 5 -11 0 -14 -3 -6 -6z"/>
<path d="M380 695 c-36 -7 -111 -25 -168 -39 -56 -14 -127 -29 -157 -32 -45
-6 -55 -10 -55 -25 0 -24 4 -24 246 6 109 14 202 25 207 25 4 0 7 9 7 21 0 11
5 29 10 40 13 23 5 23 -90 4z"/>
<path d="M768 443 c6 -2 18 -2 25 0 6 3 1 5 -13 5 -14 0 -19 -2 -12 -5z"/>
<path d="M708 433 c7 -3 16 -2 19 1 4 3 -2 6 -13 5 -11 0 -14 -3 -6 -6z"/>
<path d="M653 423 c9 -2 23 -2 30 0 6 3 -1 5 -18 5 -16 0 -22 -2 -12 -5z"/>
<path d="M805 414 c-44 -8 -159 -28 -255 -44 -359 -63 -540 -97 -547 -104 -4
-3 -4 -9 -1 -12 6 -5 72 6 398 66 58 11 152 28 210 39 248 46 290 55 290 63 0
4 -3 8 -7 7 -5 -1 -44 -7 -88 -15z"/>
<path d="M545 410 l-30 -8 30 0 c17 0 44 4 60 8 l30 8 -30 0 c-16 0 -43 -4
-60 -8z"/>
<path d="M1140 241 c0 -10 9 -29 21 -42 l21 -24 -16 27 c-9 15 -13 34 -10 42
3 9 1 16 -5 16 -6 0 -11 -9 -11 -19z"/>
<path d="M2402 113 c-6 -2 -10 -8 -7 -12 2 -4 -15 -8 -38 -9 -23 -1 -98 -21
-167 -45 l-125 -42 159 -3 c142 -2 160 -1 172 15 17 23 12 39 -11 35 -9 -2
-14 1 -11 6 3 6 0 12 -6 15 -7 2 -1 4 14 3 14 0 24 -4 22 -7 -2 -4 4 -9 14
-11 13 -4 18 2 19 29 3 32 -5 38 -35 26z m-60 -40 c-6 -2 -9 -10 -6 -15 4 -7
2 -8 -4 -4 -18 11 -14 26 6 25 10 0 12 -3 4 -6z m38 -48 c0 -8 -2 -15 -4 -15
-2 0 -6 7 -10 15 -3 8 -1 15 4 15 6 0 10 -7 10 -15z"/>
<path d="M1092 18 c6 -18 28 -21 28 -4 0 9 -7 16 -16 16 -9 0 -14 -5 -12 -12z"/>
<path d="M2407 16 c-4 -10 0 -12 14 -9 22 6 26 23 5 23 -8 0 -16 -6 -19 -14z"/>
</g>
</svg>
